<svg version="1.0" xmlns="http://www.w3.org/2000/svg" width="1500.000000pt" height="1125.000000pt" viewBox="0 0 1500.000000 1125.000000" preserveAspectRatio="xMidYMid meet">
<metadata fill="#1e319d">
<!-- Created by potrace 1.16, written by Peter Selinger 2001-2019 -->
</metadata>
<g transform="translate(0.000000,1125.000000) scale(0.100000,-0.100000)" fill="#1e319d" stroke="none">
<path d="M7270 10660 c-58 -36 -109 -70 -244 -165 -24 -16 -56 -39 -72 -50 -115 -80 -325 -229 -354 -250 -19 -15 -48 -35 -65 -46 -16 -11 -48 -33 -70 -49 -22 -17 -58 -43 -80 -58 -22 -15 -98 -68 -170 -119 -71 -50 -152 -106 -178 -125 -27 -18 -86 -61 -133 -95 -46 -34 -94 -68 -107 -74 -12 -7 -35 -23 -52 -36 -16 -13 -59 -45 -95 -70 -105 -75 -130 -102 -130 -141 0 -48 15 -70 58 -82 50 -14 858 -13 1032 1 74 6 162 12 195 14 33 1 128 7 210 13 262 19 762 26 846 12 102 -17 219 -61 276 -105 107 -82 142 -176 138 -370 -3 -112 -24 -165 -96 -237 -47 -47 -232 -148 -271 -148 -41 0 -209 -63 -223 -83 -12 -17 -15 -55 -15 -173 0 -215 -26 -197 297 -206 320 -9 345 -13 603 -83 186 -51 338 -120 524 -239 233 -150 461 -439 521 -661 7 -27 21 -67 30 -89 34 -79 48 -211 49 -451 0 -180 -4 -253 -18 -338 -15 -82 -16 -113 -8 -132 12 -27 9 -26 222 -50 80 -9 161 -20 180 -25 19 -5 94 -14 165 -19 72 -6 168 -18 215 -25 154 -26 286 -46 307 -46 11 0 31 8 42 18 19 14 25 38 40 152 9 74 22 145 29 157 19 34 17 559 -2 604 -8 19 -22 97 -31 174 -9 77 -23 160 -30 185 -8 25 -26 99 -39 165 -13 66 -31 134 -40 150 -8 17 -22 62 -31 99 -9 38 -24 85 -35 105 -10 20 -23 56 -30 81 -6 25 -22 65 -35 90 -12 25 -36 74 -53 110 -29 64 -56 119 -102 210 -62 125 -251 402 -385 566 -70 86 -327 344 -416 418 -149 123 -250 199 -384 290 -71 48 -177 121 -235 162 -58 42 -121 86 -140 99 -71 50 -229 162 -324 230 -54 39 -108 77 -119 85 -34 23 -406 283 -480 335 -23 16 -84 61 -135 98 -92 67 -248 173 -313 212 -18 11 -42 26 -54 32 -11 7 -42 13 -70 12 -40 0 -63 -8 -115 -39z" fill="#1e319d"/>
<path d="M5014 9042 c-5 -4 -62 -61 -125 -127 -109 -115 -275 -316 -349 -424 -19 -28 -44 -63 -55 -78 -11 -15 -48 -74 -82 -132 -93 -154 -87 -184 42 -215 181 -45 534 -52 1035 -21 189 11 247 37 284 127 23 53 20 91 -10 153 -45 91 -88 115 -203 115 -147 0 -313 105 -355 225 -10 28 -27 73 -38 100 -10 28 -23 86 -29 130 -12 98 -25 141 -45 149 -21 8 -57 7 -70 -2z" fill="#1e319d"/>
<path d="M5050 5869 c-140 -4 -293 -12 -340 -17 -224 -26 -299 -34 -485 -46 -110 -8 -208 -17 -217 -21 -41 -16 -41 -108 0 -160 11 -14 23 -45 27 -68 4 -23 17 -69 29 -102 13 -33 33 -97 46 -143 35 -127 83 -149 213 -98 34 14 91 30 127 36 36 6 90 18 120 27 96 26 274 62 309 63 19 0 62 9 95 19 85 27 358 51 565 51 210 0 522 -24 651 -50 52 -10 160 -26 240 -35 80 -10 181 -26 225 -37 44 -10 116 -23 160 -28 99 -10 251 -36 264 -45 20 -12 166 -33 193 -28 51 10 63 36 63 132 -1 80 -3 90 -37 151 -21 36 -52 79 -70 96 -46 44 -136 103 -167 111 -14 3 -42 14 -61 23 -19 10 -75 26 -125 35 -49 10 -114 26 -142 36 -29 10 -106 25 -170 34 -65 9 -164 25 -221 36 -182 35 -690 46 -1292 28z" fill="#1e319d"/>
<path d="M9688 5735 c-49 -27 -73 -81 -73 -165 0 -124 39 -158 205 -180 52 -7 111 -19 130 -27 19 -8 92 -25 162 -39 70 -13 143 -31 162 -39 19 -8 64 -19 98 -25 104 -16 162 -30 172 -40 15 -15 62 -12 76 5 39 46 100 215 100 275 0 39 -43 83 -98 101 -20 6 -59 22 -87 34 -27 12 -81 28 -120 34 -38 7 -108 21 -155 32 -82 19 -221 32 -440 43 -81 4 -111 2 -132 -9z" fill="#1e319d"/>
<path d="M5885 5020 c-33 -5 -118 -14 -190 -19 -71 -5 -173 -19 -225 -30 -52 -10 -135 -22 -185 -25 -121 -8 -368 -34 -430 -46 -27 -6 -123 -17 -211 -25 -89 -8 -174 -20 -189 -27 -28 -13 -55 -54 -55 -85 0 -63 170 -360 224 -390 26 -15 82 -16 161 -3 33 5 110 15 170 20 61 6 130 17 155 25 57 17 354 44 570 52 139 5 189 2 315 -16 82 -13 164 -28 181 -36 17 -7 51 -16 75 -20 127 -19 253 -47 279 -60 16 -8 43 -15 60 -15 31 0 102 -15 241 -50 42 -11 89 -20 105 -20 16 0 81 -13 144 -29 63 -17 160 -35 215 -41 55 -6 138 -18 184 -26 132 -25 211 -23 491 10 69 8 166 17 215 21 50 3 124 12 165 20 139 25 265 43 365 54 55 6 174 22 265 36 91 13 192 25 225 25 33 0 107 8 165 17 168 25 429 27 590 5 82 -12 144 -16 157 -11 12 5 34 25 48 46 14 21 37 54 50 73 58 83 90 131 147 218 53 82 59 97 50 117 -15 33 -49 53 -108 65 -117 23 -195 41 -221 51 -106 42 -513 62 -692 35 -58 -9 -135 -25 -171 -36 -36 -11 -119 -29 -185 -41 -66 -12 -128 -26 -138 -31 -9 -5 -68 -18 -130 -28 -61 -11 -132 -24 -157 -30 -205 -47 -585 -90 -800 -90 -119 0 -380 23 -398 34 -5 3 -42 10 -83 16 -74 11 -252 56 -364 92 -33 10 -110 32 -171 47 -62 16 -121 34 -131 40 -11 5 -53 17 -94 26 -41 9 -110 27 -154 40 -139 41 -406 64 -530 45z" fill="#1e319d"/>
<path d="M5192 3991 c-54 -26 -79 -75 -62 -126 13 -40 80 -118 129 -151 20 -13 63 -44 96 -69 33 -24 76 -53 96 -64 19 -11 42 -27 49 -36 8 -9 34 -28 59 -41 25 -14 80 -45 121 -69 41 -25 82 -48 90 -51 8 -4 74 -35 145 -69 72 -35 141 -66 155 -70 14 -4 43 -16 65 -26 70 -33 246 -89 367 -118 64 -15 129 -33 145 -39 15 -6 60 -16 98 -21 39 -6 115 -20 170 -33 95 -22 120 -23 470 -23 350 0 375 1 470 23 55 13 132 27 170 33 39 5 97 18 130 28 33 10 96 26 140 36 44 10 96 26 115 35 19 10 60 23 91 28 31 6 71 20 91 31 19 12 59 28 89 37 30 9 74 27 99 40 25 13 65 33 90 44 110 49 338 177 421 237 26 18 51 33 57 33 5 0 16 7 23 16 8 9 30 27 49 40 19 13 58 42 85 64 28 22 67 51 88 65 26 18 37 33 37 49 0 69 -38 88 -190 94 -131 5 -265 -12 -560 -74 -36 -7 -112 -22 -170 -34 -58 -12 -134 -30 -170 -40 -77 -22 -223 -50 -263 -50 -15 0 -44 -7 -65 -16 -40 -18 -185 -38 -378 -54 -187 -15 -497 10 -618 50 -33 11 -72 20 -87 20 -14 0 -71 12 -125 26 -55 15 -135 35 -179 45 -44 10 -109 25 -145 33 -36 9 -104 24 -152 35 -48 11 -109 26 -136 34 -26 8 -91 20 -143 26 -52 7 -157 23 -234 36 -172 30 -331 44 -585 51 -181 5 -198 4 -238 -15z" fill="#1e319d"/>
<path d="M2914 2249 c-71 -57 -132 -107 -136 -113 -4 -6 -7 -211 -5 -456 l2 -445 168 0 168 0 -1 328 c0 259 2 327 12 326 10 0 453 -482 571 -621 l27 -32 0 142 c0 160 -2 167 -76 264 -28 36 -59 63 -84 74 -39 17 -52 34 -27 34 24 0 114 48 150 80 l37 32 0 188 0 188 -42 36 c-74 63 -129 74 -400 75 l-235 2 -129 -102z m438 -119 c79 -22 106 -116 48 -170 -36 -34 -66 -40 -191 -40 l-99 0 0 103 c0 57 3 107 7 110 10 11 194 8 235 -3z" fill="#1e319d"/>
<path d="M3930 2241 l-145 -98 -3 -462 -2 -461 325 0 325 0 0 130 0 129 -152 3 -153 3 0 100 0 100 153 3 153 3 -3 112 -3 112 -153 3 -153 3 3 77 3 77 154 3 153 3 127 120 c69 66 128 125 129 130 2 5 -121 9 -305 9 l-308 0 -145 -99z" fill="#1e319d"/>
<path d="M5010 2320 c-111 -23 -137 -32 -212 -71 -82 -44 -194 -155 -237 -238 -70 -133 -88 -289 -52 -433 51 -200 159 -303 373 -361 74 -19 108 -22 303 -22 121 0 228 3 238 7 16 7 17 30 15 329 l-3 321 -65 0 -65 0 -1 -196 c0 -107 -4 -199 -8 -203 -4 -4 -67 -8 -139 -8 -129 0 -133 1 -187 31 -98 56 -143 169 -120 302 37 214 183 312 464 312 l121 0 87 87 c49 48 88 93 88 99 0 17 -16 21 -171 44 -168 24 -314 24 -429 0z" fill="#1e319d"/>
<path d="M7240 2259 c-63 -43 -130 -90 -147 -104 l-33 -26 0 -454 0 -455 325 0 325 0 0 130 0 130 -150 0 -151 0 3 103 3 102 148 3 147 3 0 114 0 115 -150 0 -151 0 3 78 3 77 155 5 155 5 126 120 c70 66 127 123 128 128 1 4 -140 7 -311 6 l-313 -1 -115 -79z" fill="#1e319d"/>
<path d="M8215 2324 c-163 -25 -261 -93 -306 -213 -35 -93 -15 -185 58 -267 15 -18 87 -80 158 -139 134 -111 165 -145 165 -181 0 -66 -133 -92 -296 -58 -41 8 -98 14 -127 12 l-52 -3 3 -115 c2 -63 7 -118 10 -122 9 -9 174 -27 312 -35 185 -10 340 36 421 125 54 58 80 119 86 206 5 60 2 78 -15 111 -25 49 -110 132 -218 213 -90 67 -144 124 -144 151 0 55 89 81 276 81 l143 0 32 48 c43 64 86 109 134 140 l40 26 -205 17 c-247 21 -356 22 -475 3z" fill="#1e319d"/>
<path d="M6083 2195 l-133 -127 0 -434 0 -434 170 2 171 3 -1 428 0 427 73 0 c99 0 167 -21 205 -64 47 -54 57 -96 57 -246 0 -123 -2 -139 -25 -183 -34 -67 -75 -90 -175 -97 l-80 -5 0 -130 0 -130 82 -3 c107 -4 263 33 334 79 150 96 217 264 206 514 -12 273 -98 418 -297 498 -37 16 -82 20 -250 24 l-205 5 -132 -127z" fill="#1e319d"/>
<path d="M9096 2304 c-138 -33 -272 -138 -330 -256 -84 -174 -85 -420 -2 -595 89 -187 268 -283 524 -283 227 1 400 88 495 251 62 105 90 344 58 494 -43 200 -190 348 -389 391 -85 17 -279 17 -356 -2z m312 -278 c28 -19 51 -47 69 -85 24 -49 28 -70 31 -167 8 -248 -65 -351 -243 -342 -92 4 -142 35 -182 111 -27 50 -28 57 -28 202 0 144 1 152 27 202 46 86 99 114 209 110 65 -2 82 -6 117 -31z" fill="#1e319d"/>
<path d="M5773 2253 c-32 -26 -104 -84 -160 -131 l-103 -84 0 -409 c0 -225 0 -412 0 -416 0 -5 75 -8 168 -8 l167 0 3 548 c1 348 -1 547 -8 547 -5 0 -35 -21 -67 -47z" fill="#1e319d"/>
<path d="M10237 1910 c-112 -28 -172 -94 -172 -190 0 -106 66 -162 242 -206 53 -13 104 -31 114 -40 27 -24 23 -59 -7 -83 -49 -38 -130 -21 -172 35 l-19 27 -77 -47 c-42 -27 -76 -54 -76 -62 0 -8 17 -31 38 -52 51 -51 110 -67 242 -67 109 0 145 10 214 58 35 25 76 110 76 160 0 109 -78 174 -255 212 -97 20 -129 35 -134 60 -5 28 26 45 81 45 39 0 54 -5 74 -26 l26 -25 79 37 c54 25 79 43 79 54 0 25 -72 87 -117 100 -51 16 -189 21 -236 10z" fill="#1e319d"/>
<path d="M11186 1773 c-26 -71 -54 -144 -61 -163 -8 -19 -39 -102 -69 -185 -30 -82 -58 -158 -61 -167 -7 -16 2 -18 97 -18 l104 0 14 50 14 50 88 0 c48 0 88 3 88 7 0 4 -30 37 -66 74 l-65 66 31 109 c37 126 46 147 54 124 16 -42 66 -196 66 -202 0 -5 -28 -8 -62 -8 l-63 0 87 -87 c69 -70 89 -97 98 -133 7 -25 16 -47 20 -50 4 -3 53 -4 108 -2 l101 3 -11 27 c-25 65 -182 494 -205 560 l-25 72 -118 0 -117 0 -47 -127z" fill="#1e319d"/>
<path d="M10730 1331 l0 -90 90 -3 c50 -2 94 -2 98 -1 4 2 6 42 5 90 l-2 88 -95 3 -96 3 0 -90z" fill="#1e319d"/>
<path d="M11777 1413 c-11 -10 -8 -171 3 -175 5 -1 50 -2 100 0 l90 3 0 90 0 89 -93 0 c-52 0 -97 -3 -100 -7z" fill="#1e319d"/>
</g>
</svg>